<svg width="1264" height="978" viewBox="0 0 1264 978" fill="none" xmlns="http://www.w3.org/2000/svg">
<path d="M-80.1761 -127.897C-31.5089 -143.452 19.9894 -148.084 70.6513 -141.465L337.637 -106.582C415.871 -96.3608 465.377 -17.3378 440.442 57.517C419.135 121.481 452.175 190.851 515.266 214.618L707.253 286.939C762.995 307.937 802.181 358.512 808.592 417.732C816.897 494.44 879.413 553.919 956.44 558.396L1052.41 563.974C1213.7 573.349 1331.17 720.655 1304.4 879.989L1294.49 938.972C1271.12 1078.11 1160.68 1186.3 1021.09 1206.8L443.771 1291.61C302.483 1312.37 162.284 1247.65 86.4313 1126.65L-52.6644 904.78L-246.516 602.017L-353.44 425.305C-473.901 226.219 -376.68 -33.1303 -155.033 -103.972L-80.1761 -127.897Z" fill="white"/>
</svg>
